<svg xmlns="http://www.w3.org/2000/svg"><style>:root svg:not(:target){display:none}</style><svg id="basket" viewBox="0 0 16 16"><path fill-rule="evenodd" clip-rule="evenodd" d="m5.66 3.88.23 2.79h4.22l.23-2.8a2.35 2.35 0 1 0-4.68 0Zm5.78 2.79.23-2.68a3.68 3.68 0 1 0-7.34 0l.23 2.68H0L.19 8l.82 5.71A2.67 2.67 0 0 0 3.65 16h8.7c1.33 0 2.46-.98 2.64-2.29L15.81 8 16 6.67h-4.55ZM11.34 8h-.06l-.22 2.67h3.02L14.46 8h-3.13Zm-1.4 0H6.06l.22 2.67h3.44L9.94 8ZM4.72 8H1.54l.38 2.67h3.02L4.72 8Zm1.9 6.67L6.38 12H9.6l-.22 2.67H6.6ZM10.94 12l-.23 2.67h1.63c.67 0 1.23-.5 1.32-1.15L13.9 12h-2.94Zm-5.9 0 .23 2.67H3.65c-.67 0-1.23-.5-1.32-1.15L2.1 12h2.94Z"></path></svg><svg id="logo-html" viewBox="0 0 12 16"><path d="M11.22 5.75 5.97 2.5.78 5.75V1.41L6 .83l5.22.58v4.34Zm0 .58-2.1 1.3-3.14-1.97v.57L8.66 7.9l-.46.29-2.22-1.4v.58l1.75 1.1-.41.29H7.3l-1.33-.82v.58l.87.53-.89.56L.8 6.4l5.17-3.3 5.24 3.22Zm0 5.44L6 15.04.78 11.77V7.03l5.2 3.25v.59L2.43 8.64v.57L6 11.47v.6L2.43 9.85v.57L6 12.67l3.6-2.27V7.96l1.62-1.01v4.82ZM6 0 0 .66v11.58L6 16l6-3.76V.66L6 0Z"></path></svg><svg id="ok" viewBox="0 0 20 20"><path fill-rule="evenodd" clip-rule="evenodd" d="M1.4 1.4C0 2.812 0 5.074 0 9.6v.914c0 4.456 0 6.698 1.4 8.086C2.812 20 5.074 20 9.6 20h.913c4.457 0 6.699 0 8.087-1.4 1.4-1.412 1.4-3.674 1.4-8.2v-.913c0-4.457 0-6.699-1.4-8.087C17.188 0 14.926 0 10.4 0h-.914C5.03 0 2.788 0 1.4 1.4Zm8.62 8.797a3.034 3.034 0 0 0 3.028-3.028 3.038 3.038 0 0 0-6.075 0 3.038 3.038 0 0 0 3.046 3.028Zm0-4.28c.688 0 1.25.563 1.25 1.252 0 .689-.562 1.251-1.25 1.251-.69 0-1.252-.562-1.252-1.251-.018-.69.544-1.251 1.251-1.251Zm1.214 6.764a5.729 5.729 0 0 0 1.76-.725.883.883 0 0 0 .271-1.233.883.883 0 0 0-1.233-.272 3.85 3.85 0 0 1-4.08 0 .903.903 0 0 0-1.233.272.904.904 0 0 0 .308 1.215c.544.345 1.143.58 1.76.725L7.1 14.35a.886.886 0 0 0 0 1.251.861.861 0 0 0 .635.254.94.94 0 0 0 .634-.254l1.668-1.668 1.669 1.668a.887.887 0 0 0 1.251 0 .887.887 0 0 0 0-1.251l-1.723-1.668Z"></path></svg><svg id="pinterest" viewBox="0 0 22 22"><path d="M11 0a11 11 0 0 0-4 21.25c-.1-.87-.2-2.21.03-3.16l1.29-5.47s-.33-.66-.33-1.63c0-1.53.89-2.67 2-2.67.93 0 1.38.7 1.38 1.54 0 .95-.6 2.36-.9 3.67-.27 1.1.54 1.99 1.62 1.99 1.96 0 3.46-2.07 3.46-5.04 0-2.64-1.9-4.48-4.6-4.48A4.76 4.76 0 0 0 6 10.78c0 .94.36 1.96.82 2.5.09.12.1.21.07.32l-.3 1.25c-.05.2-.16.24-.37.15-1.38-.64-2.23-2.65-2.23-4.26 0-3.47 2.52-6.66 7.26-6.66 3.82 0 6.78 2.72 6.78 6.35 0 3.8-2.39 6.84-5.7 6.84-1.12 0-2.17-.58-2.52-1.26l-.69 2.62a12.3 12.3 0 0 1-1.37 2.88A11 11 0 1 0 11 0Z"></path></svg><svg id="user" viewBox="0 0 16 16"><path fill-rule="evenodd" clip-rule="evenodd" d="M10.667 4a2.667 2.667 0 1 1-5.334 0 2.667 2.667 0 0 1 5.334 0ZM12 4a4 4 0 1 1-8 0 4 4 0 0 1 8 0Zm-8.803 8.31C4.437 11.277 6.16 10.667 8 10.667s3.564.61 4.803 1.643c1.232 1.027 1.864 2.362 1.864 3.69H16c0-1.768-.843-3.464-2.343-4.714-1.5-1.25-3.535-1.953-5.657-1.953s-4.157.703-5.657 1.953S0 14.232 0 16h1.333c0-1.328.632-2.663 1.864-3.69Z"></path></svg><svg id="vk" viewBox="0 0 20 20"><path fill-rule="evenodd" clip-rule="evenodd" d="M1.4 1.4C0 2.82 0 5.08 0 9.6v.8c0 4.53 0 6.79 1.4 8.2C2.82 20 5.08 20 9.6 20h.8c4.53 0 6.79 0 8.2-1.4 1.4-1.41 1.4-3.67 1.4-8.2v-.8c0-4.53 0-6.79-1.4-8.2C17.18 0 14.92 0 10.4 0h-.8C5.07 0 2.81 0 1.4 1.4Zm1.98 4.68c.1 5.2 2.7 8.33 7.26 8.33h.26v-2.98a4.11 4.11 0 0 1 3.45 2.98h2.37a6.58 6.58 0 0 0-3.43-4.18 6.35 6.35 0 0 0 2.93-4.15h-2.15c-.47 1.65-1.85 3.15-3.17 3.3v-3.3H8.75v5.77c-1.33-.33-3.02-1.95-3.1-5.77H3.39Z"></path></svg></svg>